<svg width="40" height="40" viewBox="0 0 40 40" fill="none" xmlns="http://www.w3.org/2000/svg">
<path d="M15.0007 36.6667C15.9211 36.6667 16.6673 35.9205 16.6673 35C16.6673 34.0796 15.9211 33.3334 15.0007 33.3334C14.0802 33.3334 13.334 34.0796 13.334 35C13.334 35.9205 14.0802 36.6667 15.0007 36.6667Z" stroke="#252525" stroke-width="2" stroke-linecap="round" stroke-linejoin="round"/>
<path d="M33.3327 36.6667C34.2532 36.6667 34.9993 35.9205 34.9993 35C34.9993 34.0796 34.2532 33.3334 33.3327 33.3334C32.4122 33.3334 31.666 34.0796 31.666 35C31.666 35.9205 32.4122 36.6667 33.3327 36.6667Z" stroke="#252525" stroke-width="2" stroke-linecap="round" stroke-linejoin="round"/>
<path d="M1.66602 1.66663H8.33268L12.7993 23.9833C12.9518 24.7506 13.3692 25.4399 13.9786 25.9305C14.588 26.421 15.3505 26.6816 16.1327 26.6666H32.3327C33.1148 26.6816 33.8774 26.421 34.4868 25.9305C35.0962 25.4399 35.5136 24.7506 35.666 23.9833L38.3327 9.99996H9.99935" stroke="#252525" stroke-width="2" stroke-linecap="round" stroke-linejoin="round"/>
</svg>
