<svg width="40" height="40" viewBox="0 0 40 40" fill="none" xmlns="http://www.w3.org/2000/svg">
<path d="M36.6683 28.2V33.2C36.6702 33.6642 36.5751 34.1236 36.3892 34.5489C36.2032 34.9742 35.9305 35.356 35.5885 35.6698C35.2464 35.9836 34.8426 36.2225 34.4029 36.3712C33.9632 36.5199 33.4973 36.5751 33.035 36.5334C27.9064 35.9761 22.98 34.2236 18.6517 31.4167C14.6247 28.8578 11.2106 25.4436 8.65168 21.4167C5.83498 17.0687 4.08208 12.1183 3.53501 6.96669C3.49336 6.5058 3.54814 6.04129 3.69585 5.60273C3.84356 5.16417 4.08096 4.76117 4.39296 4.41939C4.70495 4.07761 5.08469 3.80453 5.508 3.61756C5.93131 3.43058 6.38891 3.33379 6.85168 3.33335H11.8517C12.6605 3.32539 13.4447 3.61182 14.0579 4.13924C14.6712 4.66666 15.0718 5.3991 15.185 6.20002C15.396 7.80013 15.7874 9.37123 16.3517 10.8834C16.5759 11.4799 16.6244 12.1282 16.4915 12.7515C16.3586 13.3748 16.0498 13.9469 15.6017 14.4L13.485 16.5167C15.8576 20.6893 19.3124 24.1441 23.485 26.5167L25.6017 24.4C26.0548 23.9519 26.6269 23.6431 27.2502 23.5102C27.8735 23.3772 28.5218 23.4258 29.1183 23.65C30.6305 24.2143 32.2016 24.6056 33.8017 24.8167C34.6113 24.9309 35.3507 25.3387 35.8792 25.9625C36.4078 26.5863 36.6886 27.3826 36.6683 28.2Z" stroke="#252525" stroke-width="2" stroke-linecap="round" stroke-linejoin="round"/>
</svg>
