<svg width="40" height="40" viewBox="0 0 40 40" fill="none" xmlns="http://www.w3.org/2000/svg">
<path d="M35 12.5C32.8451 12.5 30.7785 11.644 29.2548 10.1202C27.731 8.59651 26.875 6.52988 26.875 4.375C26.875 4.20924 26.8092 4.05027 26.6919 3.93306C26.5747 3.81585 26.4158 3.75 26.25 3.75H20C19.8342 3.75 19.6753 3.81585 19.5581 3.93306C19.4408 4.05027 19.375 4.20924 19.375 4.375V24.375C19.3744 25.0458 19.1938 25.7042 18.8521 26.2815C18.5104 26.8588 18.0201 27.3339 17.4323 27.6572C16.8445 27.9805 16.1808 28.1402 15.5103 28.1197C14.8397 28.0992 14.187 27.8992 13.6201 27.5405C13.0532 27.1819 12.5929 26.6777 12.2871 26.0806C11.9814 25.4835 11.8414 24.8153 11.8818 24.1456C11.9222 23.476 12.1415 22.8295 12.5168 22.2735C12.8921 21.7174 13.4097 21.2723 14.0156 20.9844C14.1214 20.9327 14.211 20.8529 14.2744 20.7536C14.3378 20.6544 14.3726 20.5396 14.375 20.4219V13.9219C14.3764 13.8297 14.3575 13.7384 14.3194 13.6545C14.2814 13.5705 14.2253 13.496 14.1551 13.4363C14.085 13.3765 14.0024 13.3331 13.9135 13.309C13.8245 13.2849 13.7314 13.2807 13.6406 13.2969C11.5342 13.6743 9.57914 14.6448 8.00485 16.0943C6.43055 17.5438 5.30233 19.4122 4.75257 21.4804C4.20281 23.5485 4.25433 25.7306 4.90107 27.7705C5.54782 29.8104 6.76296 31.6235 8.40391 32.9971C10.0449 34.3707 12.0435 35.2478 14.1654 35.5254C16.2873 35.803 18.4444 35.4697 20.3835 34.5646C22.3226 33.6594 23.9633 32.22 25.1131 30.4151C26.2629 28.6103 26.8741 26.515 26.875 24.375V17.7188C29.3192 19.2183 32.1325 20.0082 35 20C35.1658 20 35.3247 19.9342 35.4419 19.8169C35.5592 19.6997 35.625 19.5408 35.625 19.375V13.125C35.625 12.9592 35.5592 12.8003 35.4419 12.6831C35.3247 12.5658 35.1658 12.5 35 12.5ZM34.375 18.7344C31.5771 18.6289 28.8739 17.6934 26.6094 16.0469C26.5168 15.9818 26.4084 15.9431 26.2955 15.9348C26.1827 15.9266 26.0698 15.9491 25.9688 16C25.8647 16.0524 25.7774 16.1329 25.7167 16.2322C25.6559 16.3316 25.6242 16.446 25.625 16.5625V24.375C25.6241 26.2451 25.0987 28.0775 24.1087 29.6641C23.1186 31.2506 21.7035 32.5277 20.024 33.3504C18.3446 34.1731 16.4681 34.5083 14.6077 34.3181C12.7472 34.1278 10.9775 33.4197 9.49928 32.2741C8.02111 31.1285 6.89379 29.5914 6.24536 27.8373C5.59693 26.0832 5.45337 24.1824 5.83097 22.3508C6.20858 20.5192 7.09223 18.8302 8.38157 17.4756C9.67091 16.1209 11.3143 15.155 13.125 14.6875V20.0469C12.3648 20.4858 11.7336 21.117 11.2947 21.8772C10.8559 22.6374 10.6249 23.4997 10.625 24.3775C10.6251 25.2553 10.8563 26.1175 11.2952 26.8777C11.7342 27.6378 12.3656 28.2689 13.1259 28.7076C13.8861 29.1464 14.7485 29.3772 15.6263 29.377C16.504 29.3768 17.3663 29.1455 18.1263 28.7064C18.8863 28.2673 19.5174 27.6358 19.956 26.8755C20.3946 26.1152 20.6254 25.2528 20.625 24.375V5H25.6406C25.7974 7.2648 26.7679 9.39651 28.3732 11.0018C29.9785 12.6071 32.1102 13.5776 34.375 13.7344V18.7344Z" fill="black"/>
</svg>
